HIERARCHY
ROOT Hips
{
	OFFSET 0.00000 0.00000 0.00000
	CHANNELS 6 Xposition Yposition Zposition Zrotation Yrotation Xrotation 
	JOINT LHipJoint
	{
		OFFSET 0 0 0
		CHANNELS 3 Zrotation Yrotation Xrotation
		JOINT LeftUpLeg
		{
			OFFSET 1.53139 -1.83434 0.76626
			CHANNELS 3 Zrotation Yrotation Xrotation
			JOINT LeftLeg
			{
				OFFSET 2.56112 -7.03663 0.00000
				CHANNELS 3 Zrotation Yrotation Xrotation
				JOINT LeftFoot
				{
					OFFSET 2.59983 -7.14299 0.00000
					CHANNELS 3 Zrotation Yrotation Xrotation
					JOINT LeftToeBase
					{
						OFFSET 0.13742 -0.37757 2.00054
						CHANNELS 3 Zrotation Yrotation Xrotation
						End Site
						{
							OFFSET 0.00000 -0.00000 1.02897
						}
					}
				}
			}
		}
	}
	JOINT RHipJoint
	{
		OFFSET 0 0 0
		CHANNELS 3 Zrotation Yrotation Xrotation
		JOINT RightUpLeg
		{
			OFFSET -1.40122 -1.83435 0.76627
			CHANNELS 3 Zrotation Yrotation Xrotation
			JOINT RightLeg
			{
				OFFSET -2.54052 -6.98003 0.00000
				CHANNELS 3 Zrotation Yrotation Xrotation
				JOINT RightFoot
				{
					OFFSET -2.63179 -7.23079 0.00000
					CHANNELS 3 Zrotation Yrotation Xrotation
					JOINT RightToeBase
					{
						OFFSET -0.24131 -0.66299 2.03908
						CHANNELS 3 Zrotation Yrotation Xrotation
						End Site
						{
							OFFSET -0.00000 -0.00000 1.07391
						}
					}
				}
			}
		}
	}
	JOINT LowerBack
	{
		OFFSET 0 0 0
		CHANNELS 3 Zrotation Yrotation Xrotation
		JOINT Spine
		{
			OFFSET 0.01174 2.10302 -0.29778
			CHANNELS 3 Zrotation Yrotation Xrotation
			JOINT Spine1
			{
				OFFSET 0.00772 2.13227 -0.01247
				CHANNELS 3 Zrotation Yrotation Xrotation
				JOINT Neck
				{
					OFFSET 0 0 0
					CHANNELS 3 Zrotation Yrotation Xrotation
					JOINT Neck1
					{
						OFFSET -0.09219 1.60848 0.31481
						CHANNELS 3 Zrotation Yrotation Xrotation
						JOINT Head
						{
							OFFSET 0.13974 1.65456 -0.31134
							CHANNELS 3 Zrotation Yrotation Xrotation
							End Site
							{
								OFFSET 0.04742 1.69515 -0.14578
							}
						}
					}
				}
				JOINT LeftShoulder
				{
					OFFSET 0 0 0
					CHANNELS 3 Zrotation Yrotation Xrotation
					JOINT LeftArm
					{
						OFFSET 3.24909 1.02882 -0.23993
						CHANNELS 3 Zrotation Yrotation Xrotation
						JOINT LeftForeArm
						{
							OFFSET 5.32955 -0.00000 -0.00000
							CHANNELS 3 Zrotation Yrotation Xrotation
							JOINT LeftHand
							{
								OFFSET 3.69232 -0.00000 -0.00000
								CHANNELS 3 Zrotation Yrotation Xrotation
								JOINT LeftFingerBase
								{
									OFFSET 0 0 0
									CHANNELS 3 Zrotation Yrotation Xrotation
									JOINT LeftHandIndex1
									{
										OFFSET 0.53660 -0.00000 -0.00000
										CHANNELS 3 Zrotation Yrotation Xrotation
										End Site
										{
											OFFSET 0.43262 -0.00000 -0.00000
										}
									}
								}
								JOINT LThumb
								{
									OFFSET 0 0 0
									CHANNELS 3 Zrotation Yrotation Xrotation
									End Site
									{
										OFFSET 0.43922 -0.00000 0.43922
									}
								}
							}
						}
					}
				}
				JOINT RightShoulder
				{
					OFFSET 0 0 0
					CHANNELS 3 Zrotation Yrotation Xrotation
					JOINT RightArm
					{
						OFFSET -3.21387 0.93002 -0.34594
						CHANNELS 3 Zrotation Yrotation Xrotation
						JOINT RightForeArm
						{
							OFFSET -5.23431 -0.00000 0.00000
							CHANNELS 3 Zrotation Yrotation Xrotation
							JOINT RightHand
							{
								OFFSET -3.55301 -0.00000 -0.00000
								CHANNELS 3 Zrotation Yrotation Xrotation
								JOINT RightFingerBase
								{
									OFFSET 0 0 0
									CHANNELS 3 Zrotation Yrotation Xrotation
									JOINT RightHandIndex1
									{
										OFFSET -0.77252 -0.00000 -0.00000
										CHANNELS 3 Zrotation Yrotation Xrotation
										End Site
										{
											OFFSET -0.62283 -0.00000 -0.00000
										}
									}
								}
								JOINT RThumb
								{
									OFFSET 0 0 0
									CHANNELS 3 Zrotation Yrotation Xrotation
									End Site
									{
										OFFSET -0.63234 -0.00000 0.63234
									}
								}
							}
						}
					}
				}
			}
		}
	}
}
MOTION
Frames: 13
Frame Time: .0083333
-11.4272 17.6278 -10.7845 0 0 0 0 0 0 -21 0 0 0 0 0 0 0 0 0 0 0 0 0 0 21 0 0 0 0 0 0 0 0 0 0 0 0 0 0 0 0 0 0 0 0 0 0 -16 0 0 21 0 0 11 0 0 0 -8 0 0 0 0 0 0 0 0 0 0 0 0 0 0 0 0 0 0 0 0 8 0 0 0 0 0 0 0 0 0 0 0 0 0 0 0 0 0
-11.4272 17.6278 -10.7845 -152.3070 82.2675 -153.8670 0.0000 0.0000 0.0000 1.6445 -20.3743 -2.8657 2.8540 10.4549 30.4627 -0.0539 -7.7606 -4.1830 0.2664 -3.3203 -9.1717 0.0000 0.0000 0.0000 15.7667 3.7601 -0.0293 -1.5695 -7.9051 22.4262 -0.7042 0.5147 -15.6905 -0.5022 4.5432 -12.6100 -1.0573 0.1030 12.8258 0.9743 0.1029 0.8964 1.6036 0.1159 -6.2572 -14.9145 -10.3055 -13.9056 10.4467 -13.6293 32.2661 4.5176 -6.0486 15.5563 -0.0000 0.0000 0.0000 -83.9217 5.1421 7.1966 18.4778 -28.7647 -4.7770 -0.0000 -0.0000 5.7928 20.9574 24.1819 8.9167 -7.1250 0.0000 -0.0000 -9.0650 55.4309 -2.3350 -0.0000 0.0000 0.0000 87.9563 -5.3998 13.2306 -19.1339 29.5847 -5.0968 0.0000 0.0000 7.3486 -18.6185 6.9923 -2.3485 7.1250 -0.0000 -0.0000 5.9763 -22.6174 3.2355
-11.4377 17.6403 -10.6841 -152.3850 82.3349 -154.2460 0.0000 0.0000 0.0000 0.8016 -20.5597 -3.0418 3.0902 10.8397 31.7411 -0.1260 -9.9442 -4.5927 0.2618 -3.2917 -9.0920 0.0000 0.0000 0.0000 16.0918 3.7910 0.0639 -1.6059 -7.9919 22.6894 -0.7062 0.5686 -15.6952 -0.4426 4.2685 -11.8332 -0.9855 0.1283 13.1173 1.0051 0.1526 1.0276 1.5868 0.1405 -6.2823 -14.8304 -10.3281 -13.9477 10.3121 -13.6367 32.3648 4.4458 -6.0541 15.5928 -0.0000 0.0000 0.0000 -84.1762 5.0781 7.8845 18.4631 -28.7460 -4.7699 -0.0000 -0.0000 6.6553 21.0316 23.8967 8.8530 -7.1250 0.0000 -0.0000 -8.8682 55.1540 -2.2239 -0.0000 0.0000 0.0000 87.4499 -5.4493 13.5694 -19.3479 29.8487 -5.2029 0.0000 0.0000 6.8940 -18.6228 7.0626 -2.3726 7.1250 -0.0000 -0.0000 5.9721 -22.5436 3.2433
-11.4429 17.6476 -10.5948 -151.4890 82.3621 -153.4900 0.0000 0.0000 0.0000 0.0590 -20.5990 -3.3328 3.3024 11.1693 32.8529 -0.2206 -12.1889 -5.0810 0.3350 -3.7198 -10.2896 0.0000 0.0000 0.0000 16.4527 3.6884 -0.1375 -1.6600 -8.1186 23.0750 -0.7231 0.9500 -15.7712 -0.4308 4.2123 -11.6749 -0.6337 0.1215 13.1146 1.0450 0.2014 1.1427 1.4203 0.1559 -6.1595 -14.8816 -10.3142 -13.9340 10.3569 -13.6161 32.4301 4.4823 -6.0438 15.6279 0.0000 -0.0000 0.0000 -84.4621 5.0034 8.5593 18.4546 -28.7354 -4.7658 -0.0000 -0.0000 7.5250 21.0611 23.6111 8.7681 -7.1250 0.0000 -0.0000 -8.7207 54.8670 -2.1254 0.0000 -0.0000 0.0000 86.9828 -5.4180 13.6287 -19.4726 30.0017 -5.2651 0.0000 0.0000 6.7529 -18.6222 7.2426 -2.4326 7.1250 -0.0000 -0.0000 5.9700 -22.3550 3.2680
-11.4601 17.6445 -10.5007 -153.5570 82.4762 -155.7010 0.0000 0.0000 0.0000 -1.1108 -20.6586 -3.6528 3.5132 11.4828 33.9261 -0.3504 -14.4054 -5.3529 0.3728 -3.9219 -10.8571 0.0000 0.0000 0.0000 16.4254 3.6752 -0.2723 -1.7090 -8.2315 23.4196 -0.7333 1.1277 -15.8348 -0.4118 4.1196 -11.4133 -0.7095 0.1751 13.2997 0.9589 0.2584 1.2367 1.3617 0.1857 -6.1645 -14.8946 -10.2651 -13.7736 10.5538 -13.6127 32.2598 4.5712 -6.0257 15.5289 0.0000 -0.0000 0.0000 -84.6432 4.9214 9.4613 18.4694 -28.7541 -4.7729 -0.0000 -0.0000 8.2754 20.9662 23.4835 8.6817 -7.1250 0.0000 -0.0000 -8.7672 54.7175 -2.1049 0.0000 -0.0000 0.0000 86.6804 -5.4265 13.3352 -19.6554 30.2250 -5.3568 0.0000 0.0000 6.5433 -18.6381 7.3066 -2.4562 7.1250 -0.0000 -0.0000 5.9574 -22.2872 3.2703
-11.4798 17.6444 -10.4075 -156.3060 82.6136 -158.6130 0.0000 0.0000 0.0000 -2.3982 -20.6457 -3.9273 3.7167 11.7736 34.9356 -0.4810 -16.2410 -5.5384 0.3560 -3.8332 -10.6079 0.0000 0.0000 0.0000 16.3512 3.7251 -0.3482 -1.7551 -8.3363 23.7402 -0.7376 1.0617 -15.9012 -0.4057 4.0892 -11.3277 -0.9074 0.2347 13.5957 0.8542 0.3029 1.3001 1.3549 0.2129 -6.2634 -14.9033 -10.2681 -13.7222 10.6302 -13.6423 32.2502 4.6020 -6.0298 15.5266 -0.0000 0.0000 0.0000 -84.8214 4.8220 10.2284 18.4443 -28.7223 -4.7608 -0.0000 -0.0000 9.0089 20.5291 23.1888 8.3878 -7.1250 0.0000 -0.0000 -9.0988 54.3302 -2.0993 -0.0000 0.0000 0.0000 86.3816 -5.5063 13.0691 -19.8773 30.4943 -5.4690 0.0000 0.0000 6.1484 -18.7126 7.3605 -2.4848 7.1250 -0.0000 -0.0000 5.9024 -22.2272 3.2478
-11.4916 17.6537 -10.3264 -154.6250 82.6995 -156.8050 0.0000 0.0000 0.0000 -3.0591 -20.4775 -4.4462 3.9055 12.0336 35.8510 -0.5625 -17.5890 -6.0530 0.4183 -4.1515 -11.5033 0.0000 0.0000 0.0000 16.8367 3.9511 -0.7425 -1.8073 -8.4527 24.0977 -0.7480 1.0341 -16.0230 -0.4273 4.1952 -11.6266 -0.5012 0.2400 13.4363 0.8926 0.3729 1.2918 1.1525 0.2365 -6.1835 -14.8972 -10.2747 -13.7635 10.6040 -13.6430 32.3918 4.5948 -6.0271 15.6020 -0.0000 0.0000 0.0000 -85.0648 4.7657 10.7078 18.4330 -28.7080 -4.7554 -0.0000 -0.0000 9.7402 19.9260 22.5775 7.9235 -7.1250 0.0000 -0.0000 -9.4724 53.5906 -2.0151 -0.0000 0.0000 0.0000 85.9951 -5.5668 13.0118 -20.0416 30.6924 -5.5526 0.0000 0.0000 5.6472 -18.9070 7.4079 -2.5286 7.1250 -0.0000 -0.0000 5.7601 -22.1679 3.1766
-11.5046 17.6647 -10.2468 -153.4120 82.8765 -155.4740 0.0000 0.0000 0.0000 -3.8767 -20.1182 -4.9517 4.0831 12.2701 36.6944 -0.6273 -18.7097 -6.5855 0.4630 -4.3648 -12.1052 0.0000 0.0000 0.0000 17.1887 4.2483 -1.0845 -1.8569 -8.5615 24.4330 -0.7598 1.0895 -16.1354 -0.3991 4.0562 -11.2349 -0.2048 0.2642 13.2634 0.8944 0.4481 1.3060 0.9733 0.2651 -6.0721 -14.7474 -10.1496 -13.7087 10.5644 -13.4825 32.3574 4.5880 -5.9471 15.5234 -0.0000 -0.0000 0.0000 -85.3321 4.7294 11.0725 18.4555 -28.7365 -4.7662 -0.0000 -0.0000 10.6179 19.5176 21.9663 7.5529 -7.1250 0.0000 -0.0000 -9.6492 52.8916 -1.8876 -0.0000 -0.0000 0.0000 85.5929 -5.5251 12.9152 -20.1193 30.7859 -5.5923 0.0000 0.0000 5.1382 -18.9909 7.3717 -2.5283 7.1250 -0.0000 -0.0000 5.6992 -22.2018 3.1382
-11.5178 17.6722 -10.1664 -154.7180 83.1498 -156.8730 0.0000 0.0000 0.0000 -5.1513 -19.6854 -5.2096 4.2489 12.4844 37.4680 -0.7214 -19.8252 -6.8039 0.4106 -4.1133 -11.3957 0.0000 0.0000 0.0000 17.1851 4.4737 -1.1510 -1.9023 -8.6596 24.7362 -0.7731 1.1644 -16.2588 -0.3140 3.6023 -9.9604 -0.3260 0.3291 13.3319 0.8479 0.5154 1.3892 0.9802 0.3012 -6.0238 -14.6353 -10.0667 -13.6446 10.5447 -13.3820 32.2729 4.5809 -5.8961 15.4358 -0.0000 -0.0000 0.0000 -85.6364 4.6797 11.4872 18.5244 -28.8234 -4.7994 -0.0000 -0.0000 11.2457 19.4916 21.9213 7.5276 -7.1250 0.0000 -0.0000 -9.6584 52.8411 -1.8775 -0.0000 -0.0000 0.0000 85.3119 -5.4115 12.4233 -20.2163 30.9021 -5.6420 0.0000 0.0000 4.8417 -18.9968 7.0220 -2.4100 7.1250 -0.0000 -0.0000 5.6989 -22.5688 3.0902
-11.5264 17.6775 -10.0902 -155.7590 83.4718 -157.9330 0.0000 0.0000 0.0000 -6.4589 -19.0834 -5.5438 4.3944 12.6675 38.1362 -0.7396 -20.6775 -7.6412 0.5384 -4.7012 -13.0584 0.0000 0.0000 0.0000 17.1599 4.6832 -1.3594 -1.9581 -8.7783 25.1044 -0.7917 1.3586 -16.4063 -0.2496 3.2148 -8.8775 -0.4218 0.4269 13.2865 0.8193 0.6299 1.4454 0.9836 0.3594 -5.9420 -14.5395 -10.0769 -13.6433 10.4728 -13.3975 32.2675 4.5301 -5.8992 15.4187 -0.0000 0.0000 0.0000 -85.9143 4.6383 12.0229 18.5948 -28.9121 -4.8334 -0.0000 -0.0000 11.3688 19.7164 22.0586 7.6654 -7.1250 0.0000 -0.0000 -9.4845 53.0220 -1.8853 -0.0000 0.0000 0.0000 85.0092 -5.3879 11.8413 -20.3450 31.0557 -5.7082 0.0000 0.0000 4.4275 -19.8644 6.3828 -2.3001 7.1250 -0.0000 -0.0000 5.0689 -23.2031 2.6719
-11.5359 17.6812 -10.0169 -156.2350 83.7716 -158.3600 0.0000 0.0000 0.0000 -7.6652 -18.4184 -5.9846 4.5226 12.8251 38.7172 -0.7636 -21.3366 -8.1646 0.6051 -4.9792 -13.8492 0.0000 0.0000 0.0000 17.2009 4.8814 -1.7021 -2.0271 -8.9223 25.5524 -0.8056 1.5809 -16.4973 -0.1932 2.8306 -7.8075 -0.3772 0.4753 13.1681 0.7827 0.6981 1.4815 0.9082 0.3909 -5.8386 -14.4923 -10.0239 -13.6773 10.4495 -13.3185 32.3200 4.5303 -5.8600 15.4306 0.0000 -0.0000 0.0000 -86.1732 4.6516 12.4488 18.6976 -29.0412 -4.8832 -0.0000 -0.0000 11.2230 19.7094 21.9290 7.6201 -7.1250 0.0000 -0.0000 -9.4426 52.8883 -1.8459 0.0000 -0.0000 0.0000 84.7334 -5.3514 11.3525 -20.4193 31.1442 -5.7466 0.0000 0.0000 4.0367 -21.1931 5.6707 -2.1941 7.1250 -0.0000 -0.0000 4.0914 -23.9030 2.0878
-11.5466 17.6854 -9.9426 -157.4050 84.1199 -159.4940 0.0000 0.0000 0.0000 -8.9229 -17.6857 -6.3909 4.6354 12.9611 39.2229 -0.9025 -22.2708 -7.8168 0.4500 -4.3039 -11.9334 0.0000 0.0000 0.0000 17.1972 5.1707 -2.0100 -2.1028 -9.0769 26.0363 -0.8209 1.6199 -16.6473 -0.1810 2.7405 -7.5570 -0.3955 0.5311 13.0759 0.6829 0.7629 1.5185 0.8029 0.4217 -5.7483 -14.5094 -9.9691 -13.7510 10.4777 -13.2351 32.4579 4.5674 -5.8173 15.5042 -0.0000 -0.0000 0.0000 -86.3801 4.7459 12.9319 18.8680 -29.2543 -4.9662 -0.0000 -0.0000 11.0425 19.7066 22.0314 7.6524 -7.1250 0.0000 -0.0000 -9.4841 52.9924 -1.8784 -0.0000 -0.0000 0.0000 84.6097 -5.2363 10.7839 -20.4590 31.1913 -5.7672 0.0000 0.0000 3.6509 -21.6265 5.4491 -2.1561 7.1250 -0.0000 -0.0000 3.7701 -24.1223 1.9041
-11.5599 17.6855 -9.8667 -159.0910 84.3948 -161.1550 0.0000 0.0000 0.0000 -10.1709 -16.7747 -6.8541 4.7302 13.0733 39.6436 -1.0938 -23.5134 -7.4061 0.3187 -3.6289 -10.0349 0.0000 0.0000 0.0000 17.1472 5.2046 -2.3987 -2.1831 -9.2376 26.5413 -0.8345 1.7910 -16.7480 -0.1770 2.7104 -7.4734 -0.4982 0.5906 13.0395 0.6322 0.8239 1.5421 0.7971 0.4532 -5.7049 -14.4889 -9.9168 -13.8158 10.3936 -13.1264 32.5802 4.5537 -5.7742 15.5489 0.0000 0.0000 0.0000 -86.6630 4.8152 13.3565 19.0356 -29.4629 -5.0483 -0.0000 -0.0000 10.7483 19.8832 22.2842 7.8090 -7.1250 0.0000 -0.0000 -9.4023 53.2831 -1.9290 0.0000 0.0000 0.0000 84.4137 -5.1422 10.1207 -20.5090 31.2507 -5.7931 0.0000 0.0000 3.1696 -21.1588 5.8146 -2.2455 7.1250 -0.0000 -0.0000 4.1161 -23.7508 2.1150
